<?xml version="1.0" standalone="no"?>
<!DOCTYPE svg PUBLIC "-//W3C//DTD SVG 20010904//EN"
 "http://www.w3.org/TR/2001/REC-SVG-20010904/DTD/svg10.dtd">
<svg version="1.0" xmlns="http://www.w3.org/2000/svg"
 width="225.000000pt" height="225.000000pt" viewBox="0 0 225.000000 225.000000"
 preserveAspectRatio="xMidYMid meet">

<g transform="translate(0.000000,225.000000) scale(0.100000,-0.100000)"
fill="#000000" stroke="none">
<path d="M1042 1929 c-62 -10 -127 -41 -136 -64 -3 -9 -6 -94 -6 -189 0 -193
-1 -189 75 -223 56 -24 244 -24 300 0 76 34 75 30 75 223 0 95 -3 180 -6 189
-10 24 -74 53 -145 65 -72 11 -83 11 -157 -1z m218 -65 c22 -9 40 -22 40 -29
0 -24 -90 -50 -175 -50 -86 0 -175 26 -175 50 0 13 60 40 110 49 44 8 159 -4
200 -20z m-135 -126 c53 0 107 6 133 15 41 14 42 14 42 -8 0 -35 -73 -60 -175
-60 -102 0 -175 25 -175 60 0 22 1 22 43 8 25 -9 79 -15 132 -15z m0 -101 c69
0 112 5 138 16 l37 16 0 -25 c0 -40 -55 -58 -175 -58 -120 0 -175 18 -175 58
l0 25 38 -16 c26 -12 67 -16 137 -16z m-63 -99 c63 -11 140 -4 216 18 21 6 23
4 20 -17 -10 -76 -336 -76 -346 0 -3 21 -1 23 20 17 12 -4 53 -12 90 -18z"/>
<path d="M771 1516 c-67 -37 -65 -143 4 -174 41 -19 667 -17 704 2 66 35 66
137 0 172 -45 23 -74 18 -74 -11 0 -19 5 -25 22 -25 43 0 64 -41 43 -81 -10
-18 -25 -19 -345 -19 -320 0 -335 1 -345 19 -21 40 0 81 43 81 17 0 22 6 22
25 0 20 -5 25 -25 25 -14 -1 -36 -7 -49 -14z"/>
<path d="M490 1365 l0 -84 -87 -3 -88 -3 0 -175 0 -175 88 -3 87 -3 0 -84 0
-85 100 0 c93 0 100 1 100 20 0 18 -7 20 -75 20 l-75 0 0 65 0 65 90 0 90 0 0
180 0 180 -90 0 -91 0 3 63 3 62 63 3 c54 3 62 6 62 22 0 18 -7 20 -90 20
l-90 0 0 -85z m180 -265 l0 -130 -155 0 -155 0 0 130 0 130 155 0 155 0 0
-130z"/>
<path d="M1580 1430 c0 -16 8 -19 63 -22 l62 -3 3 -62 3 -63 -55 0 c-66 0
-100 -14 -115 -47 -16 -34 -14 -47 10 -77 19 -24 27 -26 90 -26 l69 0 0 -30 0
-30 -69 0 c-63 0 -71 -2 -90 -26 -24 -30 -26 -43 -10 -77 15 -33 49 -47 114
-47 l55 0 0 -65 0 -65 -75 0 c-68 0 -75 -2 -75 -20 0 -19 7 -20 100 -20 l100
0 0 85 0 85 59 0 c74 0 114 28 114 78 0 54 -26 72 -105 72 l-68 0 0 30 0 30
68 0 c79 0 105 18 105 71 0 49 -32 72 -108 77 l-65 4 0 84 0 84 -90 0 c-83 0
-90 -2 -90 -20z m301 -216 c11 -14 10 -18 -6 -30 -28 -21 -268 -20 -285 1 -10
12 -10 18 0 30 19 23 272 22 291 -1z m4 -204 c4 -6 1 -17 -5 -25 -10 -12 -41
-15 -144 -15 -135 0 -163 7 -153 34 5 14 28 16 151 16 90 0 147 -4 151 -10z"/>
<path d="M900 1255 l0 -25 225 0 225 0 0 25 0 25 -225 0 -225 0 0 -25z"/>
<path d="M1073 1173 c-65 -3 -73 -6 -73 -23 0 -18 7 -20 75 -20 73 0 75 1 75
25 0 14 -1 24 -2 23 -2 -1 -36 -4 -75 -5z"/>
<path d="M1200 1150 c0 -18 7 -20 75 -20 68 0 75 2 75 20 0 18 -7 20 -75 20
-68 0 -75 -2 -75 -20z"/>
<path d="M900 1045 c0 -25 1 -25 85 -25 84 0 85 0 85 25 0 25 -1 25 -85 25
-84 0 -85 0 -85 -25z"/>
<path d="M1130 1045 l0 -25 110 0 110 0 0 25 0 25 -110 0 -110 0 0 -25z"/>
<path d="M900 945 l0 -25 190 0 190 0 0 25 0 25 -190 0 -190 0 0 -25z"/>
<path d="M750 590 l0 -280 375 0 375 0 0 280 0 280 -375 0 -375 0 0 -280z
m100 224 c0 -18 -24 -44 -40 -44 -15 0 -20 7 -20 25 0 21 5 25 30 25 17 0 30
-3 30 -6z m210 -44 l23 -50 189 0 188 0 -2 -177 -3 -178 -330 0 -330 0 -3 178
-2 177 35 0 c32 0 37 4 60 50 l25 50 63 0 64 0 23 -50z m290 25 l0 -25 -118 0
c-117 0 -119 0 -130 25 l-12 25 130 0 130 0 0 -25z m110 0 c0 -21 -5 -25 -30
-25 -25 0 -30 4 -30 25 0 21 5 25 30 25 25 0 30 -4 30 -25z"/>
<path d="M1102 548 c-17 -68 -30 -123 -29 -124 1 -1 12 -4 23 -8 20 -6 23 2
52 116 31 122 30 137 -4 138 -6 0 -25 -55 -42 -122z"/>
<path d="M970 575 l-34 -35 34 -35 c32 -33 35 -34 52 -18 17 15 17 17 2 35
-16 17 -16 19 1 38 15 16 15 22 5 35 -17 21 -22 20 -60 -20z"/>
<path d="M1220 595 c-10 -13 -10 -19 5 -35 17 -19 17 -21 1 -38 -15 -18 -15
-20 2 -35 17 -16 20 -15 52 18 l34 35 -34 35 c-38 40 -43 41 -60 20z"/>
</g>
</svg>
