<?xml version="1.0" standalone="no"?>
<!DOCTYPE svg PUBLIC "-//W3C//DTD SVG 20010904//EN"
 "http://www.w3.org/TR/2001/REC-SVG-20010904/DTD/svg10.dtd">
<svg version="1.0" xmlns="http://www.w3.org/2000/svg"
 width="225.000000pt" height="225.000000pt" viewBox="0 0 225.000000 225.000000"
 preserveAspectRatio="xMidYMid meet">

<g transform="translate(0.000000,225.000000) scale(0.100000,-0.100000)"
fill="#000000" stroke="none">
<path d="M333 2103 c-8 -3 -13 -25 -13 -58 l0 -53 -32 2 c-51 2 -48 -28 8 -85
27 -27 52 -49 56 -49 12 0 88 70 99 92 14 26 -7 51 -38 45 -19 -3 -23 0 -23
19 l0 24 188 2 187 3 3 24 c2 13 -2 28 -10 32 -14 9 -404 11 -425 2z"/>
<path d="M1090 2075 c0 -54 -54 -74 -95 -35 l-21 20 -24 -25 -23 -25 23 -25
c20 -21 22 -30 14 -53 -8 -22 -16 -28 -47 -30 -35 -3 -37 -5 -37 -38 0 -31 3
-34 29 -34 20 0 35 -8 45 -22 21 -30 20 -47 -4 -73 l-20 -21 25 -24 25 -23 26
24 c23 22 27 23 52 8 19 -10 28 -24 30 -47 3 -29 6 -32 37 -32 31 0 34 3 37
32 2 23 11 37 30 47 25 15 29 14 52 -8 l26 -24 25 23 25 24 -20 21 c-24 26
-25 43 -4 73 10 14 25 22 45 22 26 0 29 3 29 34 0 33 -2 35 -37 38 -31 2 -39
8 -47 30 -8 23 -6 32 14 53 l23 25 -23 25 -24 25 -21 -20 c-41 -39 -95 -19
-95 35 0 33 -2 35 -35 35 -33 0 -35 -2 -35 -35z m136 -118 c44 -47 51 -96 23
-154 -16 -34 -32 -50 -63 -64 -51 -23 -71 -23 -122 0 -31 14 -47 30 -63 64
-70 144 117 272 225 154z"/>
<path d="M1077 1912 c-26 -29 -22 -77 9 -101 15 -12 32 -21 39 -21 7 0 24 9
39 21 32 25 36 77 8 102 -25 22 -75 21 -95 -1z"/>
<path d="M1492 2101 c-8 -4 -12 -19 -10 -32 l3 -24 188 -3 187 -2 0 -24 c0
-19 -4 -22 -23 -19 -31 6 -52 -19 -38 -45 11 -22 87 -92 99 -92 4 0 29 22 56
49 56 57 59 87 8 85 l-32 -2 0 53 c0 39 -4 54 -16 59 -24 9 -407 7 -422 -3z"/>
<path d="M152 1748 c-9 -9 -12 -140 -12 -530 l0 -518 985 0 985 0 0 518 c0
390 -3 521 -12 530 -9 9 -103 12 -360 12 -321 0 -372 -4 -338 -25 21 -13 8
-36 -50 -95 -58 -58 -91 -73 -106 -48 -6 9 -10 5 -14 -12 -6 -25 -8 -25 -105
-25 -97 0 -99 0 -105 25 -4 17 -8 21 -14 12 -15 -24 -43 -11 -104 49 -60 58
-73 81 -52 94 34 21 -17 25 -338 25 -257 0 -351 -3 -360 -12z m366 -70 c9 -9
12 -123 12 -450 0 -422 -1 -438 -19 -448 -11 -5 -84 -10 -165 -10 -118 0 -147
3 -160 16 -14 14 -16 68 -16 444 0 376 2 430 16 444 13 13 43 16 168 16 105 0
156 -4 164 -12z m1546 -4 c13 -13 16 -45 16 -195 0 -166 -1 -180 -20 -199 -19
-19 -33 -20 -199 -20 -150 0 -182 3 -195 16 -13 13 -16 46 -16 203 0 132 4
191 12 199 8 8 67 12 199 12 157 0 190 -3 203 -16z m-739 -257 l180 -92 0
-200 0 -200 -180 -92 c-99 -51 -189 -92 -200 -92 -11 0 -101 41 -200 92 l-180
92 0 200 0 200 180 92 c99 51 189 92 200 92 11 0 101 -41 200 -92z m739 -239
c24 -33 23 -369 0 -392 -13 -13 -45 -16 -195 -16 -105 0 -188 4 -200 10 -18
10 -19 23 -19 200 0 158 3 191 16 204 13 13 45 16 199 16 179 0 184 -1 199
-22z"/>
<path d="M250 1586 c0 -34 2 -36 33 -36 31 0 33 2 32 33 -1 28 -5 32 -33 35
-31 3 -32 2 -32 -32z"/>
<path d="M390 1586 c0 -35 1 -36 36 -36 34 0 35 1 32 33 -3 28 -7 32 -35 35
-32 3 -33 2 -33 -32z"/>
<path d="M250 1446 c0 -34 2 -36 33 -36 31 0 33 2 32 33 -1 28 -5 32 -33 35
-31 3 -32 2 -32 -32z"/>
<path d="M390 1446 c0 -35 1 -36 36 -36 34 0 35 1 32 33 -3 28 -7 32 -35 35
-32 3 -33 2 -33 -32z"/>
<path d="M250 1300 c0 -27 3 -30 33 -30 30 0 33 3 32 30 0 27 -3 30 -32 30
-30 0 -33 -3 -33 -30z"/>
<path d="M390 1300 c0 -28 3 -30 35 -30 32 0 35 2 35 30 0 28 -3 30 -35 30
-32 0 -35 -2 -35 -30z"/>
<path d="M250 1160 c0 -27 3 -30 33 -30 30 0 33 3 32 30 0 27 -3 30 -32 30
-30 0 -33 -3 -33 -30z"/>
<path d="M390 1160 c0 -28 3 -30 35 -30 32 0 35 2 35 30 0 28 -3 30 -35 30
-32 0 -35 -2 -35 -30z"/>
<path d="M250 1020 c0 -27 3 -30 33 -30 29 0 32 3 32 30 1 27 -2 30 -32 30
-30 0 -33 -3 -33 -30z"/>
<path d="M390 1020 c0 -28 3 -30 35 -30 32 0 35 2 35 30 0 28 -3 30 -35 30
-32 0 -35 -2 -35 -30z"/>
<path d="M250 877 c0 -31 2 -33 33 -29 28 3 32 7 32 33 1 26 -2 29 -32 29 -31
0 -33 -2 -33 -33z"/>
<path d="M390 877 c0 -32 1 -33 35 -29 31 4 35 8 35 33 0 26 -3 29 -35 29 -33
0 -35 -2 -35 -33z"/>
<path d="M1725 1610 c-15 -24 12 -30 141 -30 127 0 134 1 134 20 0 19 -7 20
-134 20 -79 0 -137 -4 -141 -10z"/>
<path d="M1720 1425 l0 -85 140 0 140 0 0 85 0 85 -140 0 -140 0 0 -85z"/>
<path d="M990 1370 l-134 -67 137 -70 138 -70 129 66 c72 36 130 68 130 71 0
3 -60 35 -133 71 l-132 67 -135 -68z"/>
<path d="M810 1106 l0 -136 140 -70 140 -70 0 137 -1 138 -131 65 c-72 36
-135 67 -140 68 -4 2 -8 -57 -8 -132z"/>
<path d="M1293 1172 l-133 -67 0 -137 0 -138 140 70 140 70 0 135 c0 74 -3
135 -7 134 -5 0 -68 -30 -140 -67z"/>
<path d="M1720 1105 c0 -13 22 -15 140 -15 118 0 140 2 140 15 0 13 -22 15
-140 15 -118 0 -140 -2 -140 -15z"/>
<path d="M1720 936 l0 -85 140 -3 140 -3 0 88 0 87 -140 0 -140 0 0 -84z"/>
<path d="M140 572 c0 -32 5 -63 12 -70 17 -17 1929 -17 1946 0 7 7 12 38 12
70 l0 58 -985 0 -985 0 0 -58z"/>
<path d="M1054 363 c-9 -32 -19 -64 -21 -70 -4 -10 18 -13 92 -13 74 0 96 3
92 13 -2 6 -12 38 -21 70 l-17 57 -54 0 -54 0 -17 -57z"/>
<path d="M851 184 c-17 -14 -31 -30 -31 -35 0 -5 128 -9 305 -9 177 0 305 4
305 9 0 5 -14 21 -31 35 l-31 26 -243 0 -243 0 -31 -26z"/>
</g>
</svg>
