<?xml version="1.0" standalone="no"?>
<!DOCTYPE svg PUBLIC "-//W3C//DTD SVG 20010904//EN"
 "http://www.w3.org/TR/2001/REC-SVG-20010904/DTD/svg10.dtd">
<svg version="1.0" xmlns="http://www.w3.org/2000/svg"
 width="225.000000pt" height="225.000000pt" viewBox="0 0 225.000000 225.000000"
 preserveAspectRatio="xMidYMid meet">

<g transform="translate(0.000000,225.000000) scale(0.100000,-0.100000)"
fill="#000000" stroke="none">
<path d="M1020 2105 l0 -105 -35 0 -35 0 0 -101 c0 -55 -5 -109 -10 -120 -10
-18 -26 -19 -440 -19 l-430 0 0 -705 0 -705 430 0 c237 0 430 -2 430 -5 0 -3
-75 -206 -95 -258 -7 -16 11 -17 290 -17 279 0 297 1 290 17 -20 52 -95 255
-95 258 0 3 194 5 430 5 l430 0 0 705 0 705 -430 0 c-414 0 -430 1 -440 19 -5
11 -10 65 -10 120 l0 101 -35 0 -35 0 0 105 0 105 -105 0 -105 0 0 -105z m77
-62 c-2 -21 -4 -6 -4 32 0 39 2 55 4 38 2 -18 2 -50 0 -70z m60 0 c-2 -21 -4
-6 -4 32 0 39 2 55 4 38 2 -18 2 -50 0 -70z m73 -208 c0 -113 -14 -149 -67
-171 -47 -20 -97 -4 -124 40 -15 25 -19 50 -19 129 l0 97 105 0 105 0 0 -95z
m-340 -150 c0 -3 -92 -190 -205 -415 -189 -378 -205 -414 -205 -462 0 -36 7
-66 23 -93 24 -42 82 -88 105 -83 7 2 84 145 170 318 l158 315 189 0 190 0
159 -317 c88 -175 165 -318 171 -318 24 0 80 47 102 85 16 27 23 57 23 93 0
48 -16 84 -205 462 -113 225 -205 412 -205 415 0 3 169 5 375 5 l375 0 0 -565
0 -565 -985 0 -985 0 0 565 0 565 375 0 c206 0 375 -2 375 -5z m327 -225 c33
-65 58 -122 55 -125 -3 -3 -69 -5 -147 -5 -78 0 -144 2 -147 5 -3 3 22 60 55
125 58 116 61 120 92 120 31 0 34 -4 92 -120z m893 -1005 l0 -35 -985 0 -985
0 0 35 0 35 985 0 985 0 0 -35z m-828 -210 c21 -55 38 -101 38 -102 0 -2 -88
-3 -196 -3 -183 0 -196 1 -189 18 4 9 20 52 36 96 16 43 32 83 35 88 3 5 58 7
122 6 l116 -3 38 -100z"/>
<path d="M1100 1815 c-20 -25 -8 -50 25 -50 21 0 31 5 33 18 4 21 -14 47 -33
47 -7 0 -18 -7 -25 -15z"/>
</g>
</svg>
